<?xml version="1.0" encoding="iso-8859-1"?>
<!-- Generator: Adobe Illustrator 19.0.0, SVG Export Plug-In . SVG Version: 6.00 Build 0)  -->
<svg version="1.1" id="Layer_1" xmlns="http://www.w3.org/2000/svg" xmlns:xlink="http://www.w3.org/1999/xlink" x="0px" y="0px"
	 viewBox="0 0 512 512" style="enable-background:new 0 0 512 512;" xml:space="preserve">
<rect x="68" y="4" style="fill:#FFFFFF;" width="376" height="504"/>
<path style="fill:#25B6D2;" d="M440,8v496H72V8H440 M448,0H64v512h384V0L448,0z"/>
<rect x="301.728" y="389.624" style="fill:#6B6B6B;" width="77.016" height="9.592"/>
<rect x="240.08" y="389.624" style="fill:#E04F5F;" width="30.824" height="9.592"/>
<rect x="140.8" y="389.624" style="fill:#AAC1CE;" width="68.496" height="9.592"/>
<rect x="330.16" y="320.48" style="fill:#6B6B6B;" width="30.808" height="9.592"/>
<rect x="239.032" y="320.48" style="fill:#E04F5F;" width="46.208" height="9.592"/>
<rect x="131.2" y="320.48" style="fill:#AAC1CE;" width="61.616" height="9.592"/>
<rect x="131.2" y="251.336" style="fill:#25B6D2;" width="61.616" height="9.592"/>
<rect x="223.64" y="251.336" style="fill:#6B6B6B;" width="61.616" height="9.592"/>
<rect x="300.656" y="251.336" style="fill:#AAC1CE;" width="61.616" height="9.592"/>
<rect x="346.88" y="285.912" style="fill:#25B6D2;" width="30.816" height="9.592"/>
<rect x="269.848" y="285.912" style="fill:#AAC1CE;" width="30.808" height="9.592"/>
<rect x="148.664" y="285.912" style="fill:#E04F5F;" width="57.92" height="9.592"/>
<rect x="325.032" y="113.04" style="fill:#25B6D2;" width="30.808" height="9.592"/>
<rect x="248" y="113.04" style="fill:#AAC1CE;" width="30.816" height="9.592"/>
<rect x="126.832" y="113.04" style="fill:#E04F5F;" width="57.92" height="9.592"/>
<rect x="131.2" y="355.04" style="fill:#6B6B6B;" width="154.04" height="9.592"/>
<rect x="331.44" y="355.04" style="fill:#25B6D2;" width="61.616" height="9.592"/>
<rect x="346.88" y="216.72" style="fill:#E04F5F;" width="30.816" height="9.592"/>
<rect x="269.848" y="216.72" style="fill:#25B6D2;" width="30.808" height="9.592"/>
<rect x="131.2" y="216.72" style="fill:#E04F5F;" width="92.424" height="9.592"/>
<rect x="300.656" y="147.616" style="fill:#6B6B6B;" width="77.024" height="9.592"/>
<rect x="239.032" y="147.616" style="fill:#E04F5F;" width="30.824" height="9.592"/>
<rect x="139.736" y="147.616" style="fill:#AAC1CE;" width="68.496" height="9.592"/>
<rect x="316.064" y="182.192" style="fill:#25B6D2;" width="61.616" height="9.592"/>
<rect x="254.44" y="182.192" style="fill:#AAC1CE;" width="30.808" height="9.592"/>
<rect x="118.928" y="182.192" style="fill:#6B6B6B;" width="73.888" height="9.592"/>
<g>
	<path style="fill:#415E72;" d="M111.848,57.992l20.056-10.328v2.984l-16.896,8.472v0.088l16.896,8.472v2.984l-20.056-10.328
		C111.848,60.336,111.848,57.992,111.848,57.992z"/>
	<path style="fill:#415E72;" d="M141.808,41.536V53.72h14.088V41.536h3.808v29.128h-3.808V57h-14.088v13.656h-3.768v-29.12
		C138.04,41.536,141.808,41.536,141.808,41.536z"/>
	<path style="fill:#415E72;" d="M171.752,44.728h-8.856v-3.192h21.568v3.192h-8.904v25.928h-3.808
		C171.752,70.656,171.752,44.728,171.752,44.728z"/>
	<path style="fill:#415E72;" d="M212.248,57.872c-0.216-4.064-0.48-8.944-0.432-12.576h-0.136c-0.992,3.416-2.2,7.048-3.672,11.064
		l-5.144,14.136h-2.848l-4.712-13.872c-1.384-4.104-2.544-7.856-3.376-11.32h-0.088c-0.088,3.632-0.296,8.512-0.56,12.872
		l-0.776,12.496h-3.584l2.032-29.128h4.8l4.968,14.088c1.208,3.584,2.2,6.792,2.936,9.816h0.136
		c0.736-2.936,1.768-6.144,3.064-9.816l5.184-14.088h4.8l1.816,29.128h-3.672L212.248,57.872z"/>
	<path style="fill:#415E72;" d="M222.456,41.536h3.768v25.968h12.448v3.16h-16.208L222.456,41.536L222.456,41.536z"/>
	<path style="fill:#415E72;" d="M262.48,60.376l-20.056,10.28v-2.984l17.024-8.472v-0.08l-17.024-8.472v-2.984l20.056,10.288
		C262.48,57.952,262.48,60.376,262.48,60.376z"/>
	<path style="fill:#415E72;" d="M111.848,452.664l20.056-10.328v2.984l-16.896,8.472v0.088l16.896,8.472v2.984l-20.056-10.328
		C111.848,455.008,111.848,452.664,111.848,452.664z"/>
	<path style="fill:#415E72;" d="M134.712,467.056l12.064-31.328h2.936l-12.104,31.328H134.712z"/>
	<path style="fill:#415E72;" d="M156.632,436.208v12.184h14.088v-12.184h3.808v29.128h-3.808V451.68h-14.088v13.656h-3.768v-29.128
		H156.632z"/>
	<path style="fill:#415E72;" d="M186.576,439.4h-8.856v-3.192h21.568v3.192h-8.904v25.928h-3.808
		C186.576,465.328,186.576,439.4,186.576,439.4z"/>
	<path style="fill:#415E72;" d="M227.08,452.544c-0.216-4.064-0.48-8.944-0.432-12.576h-0.136c-0.992,3.416-2.2,7.048-3.672,11.064
		l-5.144,14.136h-2.848l-4.712-13.872c-1.384-4.104-2.544-7.856-3.376-11.32h-0.088c-0.088,3.632-0.296,8.512-0.56,12.872
		l-0.776,12.496h-3.576l2.032-29.128h4.8l4.968,14.088c1.208,3.584,2.2,6.792,2.936,9.816h0.136
		c0.736-2.936,1.768-6.144,3.064-9.816l5.184-14.088h4.8l1.816,29.128h-3.672L227.08,452.544z"/>
	<path style="fill:#415E72;" d="M237.28,436.208h3.768v25.968h12.448v3.16H237.28V436.208z"/>
	<path style="fill:#415E72;" d="M277.304,455.048l-20.056,10.28v-2.984l17.024-8.472v-0.088l-17.024-8.472v-2.984l20.056,10.288
		V455.048z"/>
</g>
<g>
</g>
<g>
</g>
<g>
</g>
<g>
</g>
<g>
</g>
<g>
</g>
<g>
</g>
<g>
</g>
<g>
</g>
<g>
</g>
<g>
</g>
<g>
</g>
<g>
</g>
<g>
</g>
<g>
</g>
</svg>
