<?xml version="1.0" encoding="iso-8859-1"?>
<!-- Generator: Adobe Illustrator 19.0.0, SVG Export Plug-In . SVG Version: 6.00 Build 0)  -->
<svg version="1.1" id="Layer_1" xmlns="http://www.w3.org/2000/svg" xmlns:xlink="http://www.w3.org/1999/xlink" x="0px" y="0px"
	 viewBox="0 0 512 512" style="enable-background:new 0 0 512 512;" xml:space="preserve">
<g transform="translate(1 1)">
	<g>
		<g>
			<path d="M50.2,255h110.933c5.12,0,8.533-3.413,8.533-8.533s-3.413-8.533-8.533-8.533H50.2c-5.12,0-8.533,3.413-8.533,8.533
				S45.08,255,50.2,255z"/>
			<path d="M195.267,255H280.6c5.12,0,8.533-3.413,8.533-8.533s-3.413-8.533-8.533-8.533h-85.333c-5.12,0-8.533,3.413-8.533,8.533
				S190.147,255,195.267,255z"/>
			<path d="M212.333,272.067H92.867c-5.12,0-8.533,3.413-8.533,8.533c0,5.12,3.413,8.533,8.533,8.533h119.467
				c5.12,0,8.533-3.413,8.533-8.533C220.867,275.48,217.453,272.067,212.333,272.067z"/>
			<path d="M50.2,289.133h8.533c5.12,0,8.533-3.413,8.533-8.533c0-5.12-3.413-8.533-8.533-8.533H50.2
				c-5.12,0-8.533,3.413-8.533,8.533C41.667,285.72,45.08,289.133,50.2,289.133z"/>
			<path d="M50.2,323.267H127c5.12,0,8.533-3.413,8.533-8.533S132.12,306.2,127,306.2H50.2c-5.12,0-8.533,3.413-8.533,8.533
				S45.08,323.267,50.2,323.267z"/>
			<path d="M178.2,306.2h-17.067c-5.12,0-8.533,3.413-8.533,8.533s3.413,8.533,8.533,8.533H178.2c5.12,0,8.533-3.413,8.533-8.533
				S183.32,306.2,178.2,306.2z"/>
			<path d="M50.2,357.4h110.933c5.12,0,8.533-3.413,8.533-8.533c0-5.12-3.413-8.533-8.533-8.533H50.2
				c-5.12,0-8.533,3.413-8.533,8.533C41.667,353.987,45.08,357.4,50.2,357.4z"/>
			<path d="M186.733,348.867c0,5.12,3.413,8.533,8.533,8.533h68.267c5.12,0,8.533-3.413,8.533-8.533c0-5.12-3.413-8.533-8.533-8.533
				h-68.267C190.147,340.333,186.733,343.747,186.733,348.867z"/>
			<path d="M272.067,374.467h-25.6c-5.12,0-8.533,3.413-8.533,8.533s3.413,8.533,8.533,8.533h25.6c5.12,0,8.533-3.413,8.533-8.533
				S277.187,374.467,272.067,374.467z"/>
			<path d="M84.333,383c0,5.12,3.413,8.533,8.533,8.533h119.467c5.12,0,8.533-3.413,8.533-8.533s-3.413-8.533-8.533-8.533H92.867
				C87.747,374.467,84.333,377.88,84.333,383z"/>
			<path d="M50.2,391.533h8.533c5.12,0,8.533-3.413,8.533-8.533s-3.413-8.533-8.533-8.533H50.2c-5.12,0-8.533,3.413-8.533,8.533
				S45.08,391.533,50.2,391.533z"/>
			<path d="M161.133,408.6H50.2c-5.12,0-8.533,3.413-8.533,8.533s3.413,8.533,8.533,8.533h110.933c5.12,0,8.533-3.413,8.533-8.533
				S166.253,408.6,161.133,408.6z"/>
			<path d="M263.533,408.6h-68.267c-5.12,0-8.533,3.413-8.533,8.533s3.413,8.533,8.533,8.533h68.267c5.12,0,8.533-3.413,8.533-8.533
				S268.653,408.6,263.533,408.6z"/>
			<path d="M476.013,7.533H103.107c-19.627,0-35.84,16.213-35.84,35.84V75.8v17.067V127H34.84C15.213,127-1,143.213-1,162.84v32.427
				v17.067V449.56c0,19.627,16.213,35.84,35.84,35.84h262.827v8.533c0,5.12,3.413,8.533,8.533,8.533h187.733
				c5.12,0,8.533-3.413,8.533-8.533V374.467c0-5.12-3.413-8.533-8.533-8.533H485.4v-19.132c14.904-4.066,25.6-17.658,25.6-33.775
				V92.867V75.8V43.373C511,23.747,494.787,7.533,476.013,7.533z M16.067,162.84c0-10.24,8.533-18.773,18.773-18.773h32.427h339.627
				c10.24,0,18.773,8.533,18.773,18.773v32.427h-409.6V162.84z M34.84,468.333c-10.24,0-18.773-8.533-18.773-18.773V212.333h409.6
				v38.088c-7.094-2.248-14.584-3.574-22.328-3.871c-1.091-0.054-2.182-0.083-3.272-0.083c-23.73,0-45.269,9.827-60.775,25.6
				h-92.825c-5.12,0-8.533,3.413-8.533,8.533c0,5.12,3.413,8.533,8.533,8.533h79.804c-3.117,5.355-5.681,11.065-7.583,17.067
				H212.333c-5.12,0-8.533,3.413-8.533,8.533s3.413,8.533,8.533,8.533h102.83c-0.282,2.808-0.43,5.654-0.43,8.533v34.133H306.2
				h-8.533v8.533v93.867H34.84z M485.4,485.4H314.733V383h8.533h8.533h25.6h85.333h34.133h8.533V485.4z M434.2,365.933h-68.267
				V331.8c0-18.773,15.36-34.133,34.133-34.133c18.773,0,34.133,15.36,34.133,34.133V365.933z M451.267,365.933V331.8
				c0-28.16-23.04-51.2-51.2-51.2c-28.16,0-51.2,23.04-51.2,51.2v34.133H331.8V331.8c0-37.547,30.72-68.267,68.267-68.267
				c0.942,0,1.876,0.033,2.809,0.072c9.304,0.425,18.607,2.956,27.911,7.608l5.067,2.533c13.794,8.555,24.356,21.875,29.333,37.621
				c0.059,0.188,0.114,0.377,0.172,0.565c0.231,0.752,0.445,1.511,0.65,2.274c0.08,0.299,0.164,0.598,0.24,0.898
				c0.224,0.883,0.431,1.772,0.62,2.668c0.078,0.37,0.145,0.742,0.217,1.113c0.118,0.612,0.23,1.225,0.331,1.842
				c0.065,0.396,0.131,0.793,0.189,1.19c0.134,0.917,0.257,1.838,0.354,2.766c0.025,0.237,0.04,0.476,0.063,0.714
				c0.075,0.802,0.138,1.607,0.185,2.416c0.018,0.301,0.034,0.603,0.048,0.905c0.046,1.022,0.079,2.047,0.079,3.08v17.067v17.067
				H451.267z M493.933,313.88c0,5.973-3.413,11.947-8.533,15.36c-0.552-19.333-7.548-37.231-19.353-51.39
				c-0.122-0.149-0.244-0.298-0.367-0.446c-0.216-0.256-0.439-0.506-0.658-0.759c-6.303-7.406-13.84-13.724-22.289-18.641v-45.67
				h0.853V162.84c0-19.627-16.213-35.84-35.84-35.84h-0.853H84.333V92.867h409.6V313.88z M84.333,75.8V43.373
				c0-10.24,8.533-18.773,18.773-18.773H475.16c10.24,0,18.773,8.533,18.773,18.773V75.8H84.333z"/>
			<path d="M75.8,161.133H50.2c-5.12,0-8.533,3.413-8.533,8.533S45.08,178.2,50.2,178.2h25.6c5.12,0,8.533-3.413,8.533-8.533
				S80.92,161.133,75.8,161.133z"/>
			<path d="M144.067,161.133h-25.6c-5.12,0-8.533,3.413-8.533,8.533s3.413,8.533,8.533,8.533h25.6c5.12,0,8.533-3.413,8.533-8.533
				S149.187,161.133,144.067,161.133z"/>
			<path d="M144.067,41.667h-25.6c-5.12,0-8.533,3.413-8.533,8.533s3.413,8.533,8.533,8.533h25.6c5.12,0,8.533-3.413,8.533-8.533
				S149.187,41.667,144.067,41.667z"/>
			<path d="M212.333,41.667h-25.6c-5.12,0-8.533,3.413-8.533,8.533s3.413,8.533,8.533,8.533h25.6c5.12,0,8.533-3.413,8.533-8.533
				S217.453,41.667,212.333,41.667z"/>
			<path d="M417.133,417.133H383c-5.12,0-8.533,3.413-8.533,8.533S377.88,434.2,383,434.2h8.533v17.067
				c0,5.12,3.413,8.533,8.533,8.533c5.12,0,8.533-3.413,8.533-8.533V434.2h8.533c5.12,0,8.533-3.413,8.533-8.533
				S422.253,417.133,417.133,417.133z"/>
		</g>
	</g>
</g>
<g>
</g>
<g>
</g>
<g>
</g>
<g>
</g>
<g>
</g>
<g>
</g>
<g>
</g>
<g>
</g>
<g>
</g>
<g>
</g>
<g>
</g>
<g>
</g>
<g>
</g>
<g>
</g>
<g>
</g>
</svg>
